<?xml version="1.0" encoding="iso-8859-1"?>
<!-- Uploaded to: SVG Repo, www.svgrepo.com, Generator: SVG Repo Mixer Tools -->
<svg fill="#000000" height="800px" width="800px" version="1.1" id="Layer_1" xmlns="http://www.w3.org/2000/svg" xmlns:xlink="http://www.w3.org/1999/xlink" 
	 viewBox="0 0 512 512" xml:space="preserve">
<g>
	<g>
		<path d="M493.526,0H18.474C8.288,0,0,8.288,0,18.474v475.052C0,503.712,8.288,512,18.474,512h475.052
			c10.186,0,18.474-8.288,18.474-18.474V18.474C512,8.288,503.712,0,493.526,0z M496.165,493.526c0,1.43-1.209,2.639-2.639,2.639
			H18.474c-1.43,0-2.639-1.209-2.639-2.639V18.474c0-1.43,1.209-2.639,2.639-2.639h475.052c1.43,0,2.639,1.209,2.639,2.639V493.526z
			"/>
	</g>
</g>
<g>
	<g>
		<polygon points="68.619,34.309 68.619,73.897 34.309,73.897 34.309,89.732 84.454,89.732 84.454,34.309 		"/>
	</g>
</g>
<g>
	<g>
		<polygon points="443.381,73.897 443.381,34.309 427.546,34.309 427.546,89.732 477.691,89.732 477.691,73.897 		"/>
	</g>
</g>
<g>
	<g>
		<polygon points="34.309,422.268 34.309,438.103 68.619,438.103 68.619,477.691 84.454,477.691 84.454,422.268 		"/>
	</g>
</g>
<g>
	<g>
		<polygon points="427.546,422.268 427.546,477.691 443.381,477.691 443.381,438.103 477.691,438.103 477.691,422.268 		"/>
	</g>
</g>
<g>
	<g>
		<polygon points="263.918,248.082 263.918,213.773 248.082,213.773 248.082,248.082 213.773,248.082 213.773,263.918 
			248.082,263.918 248.082,298.227 263.918,298.227 263.918,263.918 298.227,263.918 298.227,248.082 		"/>
	</g>
</g>
<g>
	<g>
		<path d="M422.268,184.742v-79.175h-79.175v31.67h-47.505v-31.67h-79.175v31.67h-47.505v-31.67H89.732v79.175h31.67v31.67h-31.67
			v79.175h31.67v31.67h-31.67v79.175h79.175v-31.67h47.505v31.67h79.175v-31.67h47.505v31.67h79.175v-79.175h-31.67v-31.67h31.67
			v-79.175h-31.67v-31.67H422.268z M232.247,121.402h47.505v47.505h-47.505V121.402z M105.567,168.907v-47.505h47.505v47.505
			H105.567z M105.567,279.753v-47.505h47.505v47.505H105.567z M153.072,390.598h-47.505v-47.505h47.505V390.598z M279.753,390.598
			h-47.505v-47.505h47.505V390.598z M343.093,358.928h-47.505v-31.67h-79.175v31.67h-47.505v-31.67h-31.67v-31.67h31.67v-79.175
			h-31.67v-31.67h31.67v-31.67h47.505v31.67h79.175v-31.67h47.505v31.67h31.67v31.67h-31.67v79.175h31.67v31.67h-31.67V358.928z
			 M406.433,343.093v47.505h-47.505v-47.505H406.433z M406.433,232.247v47.505h-47.505v-47.505H406.433z M358.928,168.907v-47.505
			h47.505v47.505H358.928z"/>
	</g>
</g>
</svg>